<?xml version="1.0" encoding="UTF-8"?>
<svg id="logo-40" xmlns="http://www.w3.org/2000/svg" viewBox="0 0 50 50">
  <path d="M0,23.93c0-8.34,6.76-15.09,15.09-15.09h19.81c8.34,0,15.09,6.76,15.09,15.09v15.09H15.09c-8.34,0-15.09-6.76-15.09-15.09Z" fill="#4845d2"/>
  <path d="M15.09,14.5h19.81c5.21,0,9.43,4.22,9.43,9.43h0c0,5.21-4.22,9.43-9.43,9.43H15.09c-5.21,0-9.43-4.22-9.43-9.43h0c0-5.21,4.22-9.43,9.43-9.43Z" fill="#a5b4fc"/>
  <circle cx="15.09" cy="23.93" r="4.72" fill="#0e0023"/>
  <circle cx="13.21" cy="22.05" r=".94" fill="#fff"/>
  <circle cx="35.85" cy="23.93" r="4.72" fill="#0e0023"/>
  <circle cx="33.96" cy="22.05" r=".94" fill="#fff"/>
</svg>