<?xml version="1.0" encoding="UTF-8"?>
<svg id="logo-40" xmlns="http://www.w3.org/2000/svg" viewBox="0 0 205.64 32">
  <path d="M0,16C0,7.16,7.16,0,16,0h21c8.84,0,16,7.16,16,16v16H16C7.16,32,0,24.84,0,16Z" fill="#4845d2"/>
  <path d="M16,6h21c5.52,0,10,4.48,10,10h0c0,5.52-4.48,10-10,10h-21c-5.52,0-10-4.48-10-10h0c0-5.52,4.48-10,10-10Z" fill="#a5b4fc"/>
  <circle cx="16" cy="16" r="5" fill="#0e0023"/>
  <circle cx="14" cy="14" r="1" fill="#fff"/>
  <circle cx="38" cy="16" r="5" fill="#0e0023"/>
  <circle cx="36" cy="14" r="1" fill="#fff"/>
  <g>
    <path d="M57.76,21.57c-.43,0-.62-.19-.62-.62v-2c0-.43.19-.62.62-.62h4.61c.29,0,.45-.22.45-.5,0-.39-.15-.55-.45-.58l-2.57-.36c-1.61-.24-2.65-.92-2.65-2.84v-1.8c0-1.95,1.32-3.01,3.54-3.01h4.79c.43,0,.62.19.62.62v2.04c0,.43-.19.62-.62.62h-3.99c-.29,0-.46.21-.46.51s.17.51.46.55l2.55.34c1.61.24,2.67.92,2.67,2.84v1.8c0,1.95-1.34,3.01-3.54,3.01h-5.41Z" fill="#a5b4fc"/>
    <path d="M72.61,21.57c-2.88,0-4.21-1.11-4.21-3.49v-5.33c0-2.4,1.34-3.51,4.21-3.51h4.18c.43,0,.62.19.62.62v2.07c0,.43-.19.62-.62.62h-3.44c-.72,0-1.04.27-1.04.86v4.08c0,.56.33.82,1.04.82h3.44c.43,0,.62.19.62.62v2.04c0,.43-.19.62-.62.62h-4.18Z" fill="#a5b4fc"/>
    <path d="M79.96,21.57c-.43,0-.62-.19-.62-.62v-11.1c0-.43.19-.62.62-.62h7.95c.43,0,.62.19.62.62v2c0,.43-.19.62-.62.62h-4.73v1.32h3.34c.43,0,.62.19.62.62v1.83c0,.43-.19.62-.62.62h-3.34v1.47h4.73c.43,0,.62.19.62.62v2c0,.43-.19.62-.62.62h-7.95Z" fill="#a5b4fc"/>
    <path d="M91.16,21.57c-.43,0-.62-.19-.62-.62v-11.1c0-.43.19-.62.62-.62h1.78c.44,0,.72.12,1.01.46l3.32,3.8v-3.65c0-.43.19-.62.62-.62h2.57c.43,0,.62.19.62.62v11.1c0,.43-.19.62-.62.62h-2.57c-.43,0-.62-.19-.62-.62v-2.11l-2.93-3.54v5.65c0,.43-.19.62-.62.62h-2.57Z" fill="#a5b4fc"/>
    <path d="M104.06,21.57c-.43,0-.62-.19-.62-.62v-11.1c0-.43.19-.62.62-.62h7.94c.43,0,.62.19.62.62v2c0,.43-.19.62-.62.62h-4.73v1.32h3.34c.43,0,.62.19.62.62v1.83c0,.43-.19.62-.62.62h-3.34v1.47h4.73c.43,0,.62.19.62.62v2c0,.43-.19.62-.62.62h-7.94Z" fill="#a5b4fc"/>
    <path d="M114.95,21.57c-.43,0-.62-.19-.62-.62v-2c0-.43.19-.62.62-.62h4.61c.29,0,.44-.22.44-.5,0-.39-.15-.55-.44-.58l-2.57-.36c-1.61-.24-2.65-.92-2.65-2.84v-1.8c0-1.95,1.32-3.01,3.55-3.01h4.79c.43,0,.62.19.62.62v2.04c0,.43-.19.62-.62.62h-3.99c-.29,0-.46.21-.46.51s.17.51.46.55l2.55.34c1.61.24,2.67.92,2.67,2.84v1.8c0,1.95-1.34,3.01-3.55,3.01h-5.41Z" fill="#4845d2"/>
    <path d="M128.65,21.57c-.43,0-.62-.19-.62-.62v-8.41h-2.52c-.43,0-.62-.19-.62-.62v-2.07c0-.43.19-.62.62-.62h9.04c.43,0,.62.19.62.62v2.07c0,.43-.19.62-.62.62h-2.52v8.41c0,.43-.19.62-.62.62h-2.77Z" fill="#4845d2"/>
    <path d="M137.46,21.57c-.43,0-.62-.19-.62-.62v-11.1c0-.43.19-.62.62-.62h7.94c.43,0,.62.19.62.62v2c0,.43-.19.62-.62.62h-4.73v1.32h3.34c.43,0,.62.19.62.62v1.83c0,.43-.19.62-.62.62h-3.34v1.47h4.73c.43,0,.62.19.62.62v2c0,.43-.19.62-.62.62h-7.94Z" fill="#4845d2"/>
    <path d="M150.92,21.57h-2.52c-.43,0-.62-.19-.62-.62v-4.52c0-.68.21-1.54.67-2.74l1.49-3.89c.14-.39.41-.57.87-.57h4.61c.44,0,.72.17.86.57l1.49,3.89c.46,1.2.67,2.05.67,2.74v4.52c0,.43-.19.62-.62.62h-2.59c-.46,0-.67-.19-.67-.62v-2.4h-3.03v2.4c0,.43-.19.62-.62.62ZM151.71,15.44h2.69l-.8-2.6c-.09-.21-.19-.29-.33-.29h-.43c-.14,0-.24.09-.32.29l-.8,2.6Z" fill="#4845d2"/>
    <path d="M161.16,21.57c-.43,0-.62-.19-.62-.62v-11.1c0-.43.19-.62.62-.62h2.65c.43,0,.62.19.62.62v8.48h2.35v-2.77c0-.43.19-.62.62-.62h2.48c.43,0,.62.19.62.62v5.39c0,.43-.19.62-.62.62h-8.72Z" fill="#4845d2"/>
    <path d="M173.07,21.57c-.43,0-.62-.19-.62-.62v-11.1c0-.43.19-.62.62-.62h7.94c.43,0,.62.19.62.62v2c0,.43-.19.62-.62.62h-4.73v1.32h3.34c.43,0,.62.19.62.62v1.83c0,.43-.19.62-.62.62h-3.34v1.47h4.73c.43,0,.62.19.62.62v2c0,.43-.19.62-.62.62h-7.94Z" fill="#4845d2"/>
    <path d="M184.27,21.57c-.43,0-.62-.19-.62-.62v-11.1c0-.43.19-.62.62-.62h5.7c2.57,0,3.37,1.16,3.37,2.86v.79c0,.96-.24,1.64-.96,1.95,1.25.14,2.07,1.04,2.07,2.48v3.63c0,.43-.19.62-.62.62h-2.65c-.43,0-.62-.19-.62-.62v-2.62c0-.51-.17-.74-.65-.74h-2.4v3.36c0,.43-.19.62-.62.62h-2.64ZM187.52,14.51h1.28c.6,0,.75-.34.75-.8v-.58c0-.46-.15-.81-.75-.81h-1.28v2.19Z" fill="#4845d2"/>
    <path d="M196.68,21.57c-.43,0-.62-.19-.62-.62v-2c0-.43.19-.62.62-.62h4.61c.29,0,.44-.22.44-.5,0-.39-.15-.55-.44-.58l-2.57-.36c-1.61-.24-2.65-.92-2.65-2.84v-1.8c0-1.95,1.32-3.01,3.55-3.01h4.79c.43,0,.62.19.62.62v2.04c0,.43-.19.62-.62.62h-3.99c-.29,0-.46.21-.46.51s.17.51.46.55l2.55.34c1.61.24,2.67.92,2.67,2.84v1.8c0,1.95-1.34,3.01-3.55,3.01h-5.41Z" fill="#4845d2"/>
  </g>
</svg>