<?xml version="1.0" encoding="UTF-8"?>
<svg id="Ebene_1" xmlns="http://www.w3.org/2000/svg" version="1.1" viewBox="0 0 448 512">
  <!-- Generator: Adobe Illustrator 29.2.1, SVG Export Plug-In . SVG Version: 2.1.0 Build 116)  -->
  <defs>
    <style>
      .st0 {
        fill: #fff;
      }
    </style>
  </defs>
  <path class="st0" d="M282,256.2l-95.2-54.1v108.2l95.2-54.1ZM384,32H64C28.7,32,0,60.7,0,96v320c0,35.3,28.7,64,64,64h320c35.3,0,64-28.7,64-64V96c0-35.3-28.7-64-64-64ZM398.4,168.1c7.6,28.6,7.6,88.2,7.6,88.2,0,0,0,59.6-7.6,88.1-4.2,15.8-16.5,27.7-32.2,31.9-28.3,7.7-142.2,7.7-142.2,7.7,0,0-113.9,0-142.2-7.6-15.7-4.2-28-16.1-32.2-31.9-7.6-28.6-7.6-88.2-7.6-88.2,0,0,0-59.7,7.6-88.2,4.2-15.8,16.5-28.2,32.2-32.4,28.3-7.7,142.2-7.7,142.2-7.7,0,0,113.9,0,142.2,7.7,15.7,4.2,28,16.6,32.2,32.4h0Z"/>
</svg>